<svg width="40" height="43" viewBox="0 0 40 43" fill="none" xmlns="http://www.w3.org/2000/svg">
<path fill-rule="evenodd" clip-rule="evenodd" d="M33.9967 15.4024L34.0931 18.4078L13.9821 0.996277L12.6817 2.51582L34.1804 21.1288L34.2083 22L24.1754 30.6862C26.2707 28.3047 27.5426 25.1733 27.5426 21.7431C27.5426 14.2873 21.5335 8.24313 14.1208 8.24313C6.70813 8.24313 0.698975 14.2873 0.698975 21.7431C0.698975 29.199 6.70813 35.2431 14.1208 35.2431C16.8075 35.2431 19.3099 34.4491 21.4086 33.0816L12.6817 40.6371L13.9821 42.1566L34.2908 24.5739L34.8081 40.702L36.807 40.6371L35.9978 15.4034C37.9881 14.9471 39.4734 13.1559 39.4734 11.0158C39.4734 8.53054 37.4703 6.51582 34.9995 6.51582C32.5286 6.51582 30.5255 8.53054 30.5255 11.0158C30.5255 13.1543 32.0086 14.9445 33.9967 15.4024ZM14.1208 33.2431C20.4179 33.2431 25.5426 28.1054 25.5426 21.7431C25.5426 15.3809 20.4179 10.2431 14.1208 10.2431C7.82363 10.2431 2.69897 15.3809 2.69897 21.7431C2.69897 28.1054 7.82363 33.2431 14.1208 33.2431ZM37.4734 11.0158C37.4734 12.4075 36.3548 13.5158 34.9995 13.5158C33.6441 13.5158 32.5255 12.4075 32.5255 11.0158C32.5255 9.62414 33.6441 8.51582 34.9995 8.51582C36.3548 8.51582 37.4734 9.62414 37.4734 11.0158Z" fill="#F9F9F9"/>
</svg>
